Coordinates
version=1
nRows=13
nColumns=36
inDegrees=yes

Units are S.I. units (second, meters, Newtons, ...)
If the header above contains a line with 'inDegrees', this indicates whether rotational values are in degrees (yes) or radians (no).

endheader
time	pelvis_tilt	pelvis_list	pelvis_rotation	pelvis_tx	pelvis_ty	pelvis_tz	hip_flexion_r	hip_adduction_r	hip_rotation_r	knee_angle_r	knee_angle_r_beta	ankle_angle_r	subtalar_angle_r	mtp_angle_r	hip_flexion_l	hip_adduction_l	hip_rotation_l	knee_angle_l	knee_angle_l_beta	ankle_angle_l	subtalar_angle_l	mtp_angle_l	lumbar_extension	lumbar_bending	lumbar_rotation	arm_flex_r	arm_add_r	arm_rot_r	elbow_flex_r	pro_sup_r	arm_flex_l	arm_add_l	arm_rot_l	elbow_flex_l	pro_sup_l
      0.00000000	     23.49823536	      1.01815458	      3.58171860	     -0.58751714	      0.58580121	     -0.59883035	     60.89030582	    -11.66476300	      2.14294445	     90.57417143	      1.58081751	     10.89741880	     -0.67579689	     -5.28772145	     61.65065256	     -4.54230112	      1.51217914	     88.12127024	      1.53800631	      3.44748148	     -5.39935657	     -5.28772145	    -38.41616769	     -1.12785215	     -3.48286901	      3.31252739	     -3.54735700	     -6.49929185	    119.82301676	     95.20045684	      4.21107768	     -2.21383854	     -5.75675123	    120.93747051	     96.53787580
      0.01000000	     23.61953700	      1.03634387	      3.58221417	     -0.58764666	      0.58598902	     -0.59881085	     60.73359509	    -11.66234510	      2.17113956	     90.54932134	      1.58038379	     11.01821736	     -0.50944806	     -5.50774505	     61.49986286	     -4.53873793	      1.48417470	     88.08744560	      1.53741596	      3.33570116	     -5.63944272	     -5.50774505	    -38.55565972	     -1.14050552	     -3.50366596	      3.41559804	     -3.49335863	     -6.54112702	    119.61050851	     97.03257550	      4.24014784	     -2.25988944	     -5.84017910	    120.67392336	     98.20078982
      0.02000000	     23.58102507	      1.01517959	      3.60006048	     -0.58763684	      0.58591709	     -0.59889240	     60.77303718	    -11.65961508	      2.15326453	     90.54273586	      1.58026885	     10.97799630	     -0.57889730	     -5.58790460	     61.55532279	     -4.52583306	      1.51408727	     88.09729515	      1.53758786	      3.38782795	     -5.55174599	     -5.58790460	    -38.51571591	     -1.12540491	     -3.49563455	      3.41670846	     -3.51967382	     -6.55454663	    119.68070183	     96.09158501	      4.20854541	     -2.21183239	     -5.78070476	    120.74820843	     97.20045326
      0.03000000	     23.61790513	      1.01746055	      3.60858306	     -0.58769046	      0.58595480	     -0.59887423	     60.73069647	    -11.67866702	      2.14584650	     90.54712784	      1.58034551	     11.07365524	     -0.39139252	     -6.11742412	     61.50567812	     -4.50696823	      1.54374592	     88.07348451	      1.53717229	      3.28224797	     -5.68538864	     -6.11742412	    -38.56039515	     -1.13505459	     -3.46272486	      3.44557487	     -3.49837354	     -6.64853510	    119.47997263	     97.64545538	      4.27244236	     -2.23582358	     -5.86442679	    120.64996504	     97.61100334
      0.04000000	     23.62432087	      1.01604305	      3.60418427	     -0.58767822	      0.58592258	     -0.59897429	     60.73648247	    -11.68637996	      2.15585742	     90.55688135	      1.58051574	     11.05863693	     -0.44364193	     -6.31700619	     61.50823840	     -4.50609876	      1.52596897	     88.09640269	      1.53757229	      3.31746992	     -5.66539597	     -6.31700619	    -38.55916959	     -1.11979105	     -3.41875831	      3.47353585	     -3.50389360	     -6.75026623	    119.51591552	     97.81779059	      4.21676392	     -2.17311567	     -5.80039200	    120.50303866	     97.97829287
      0.05000000	     23.57135866	      0.97946219	      3.61245529	     -0.58765132	      0.58581909	     -0.59903204	     60.79403334	    -11.67824613	      2.10838759	     90.55494510	      1.58048195	     10.95894152	     -0.56600428	     -6.35812111	     61.58747888	     -4.51162148	      1.56072847	     88.11661174	      1.53792500	      3.32443667	     -5.69249529	     -6.35812111	    -38.49383955	     -1.07998671	     -3.36598319	      3.45318180	     -3.53781056	     -6.72067755	    119.52773735	     97.28243941	      4.18330041	     -2.18678590	     -5.72555895	    120.50347997	     97.48756746
      0.06000000	     23.52872680	      0.96374961	      3.62096777	     -0.58766315	      0.58577758	     -0.59909808	     60.83437843	    -11.66877387	      2.10357904	     90.54212368	      1.58025817	     10.87845238	     -0.67989145	     -6.40001443	     61.63954450	     -4.48698274	      1.59362173	     88.11357561	      1.53787201	      3.32871480	     -5.72127942	     -6.40001443	    -38.46053827	     -1.05579205	     -3.32525791	      3.45353985	     -3.54085172	     -6.72667730	    119.56334799	     96.64966587	      4.16120350	     -2.19769267	     -5.66040300	    120.53211204	     96.89069236
      0.07000000	     23.57639960	      1.02285863	      3.63019232	     -0.58775004	      0.58591179	     -0.59915768	     60.77471823	    -11.73269935	      2.15515397	     90.54735944	      1.58034955	     11.15030856	     -0.31410378	     -6.44995523	     61.54978029	     -4.41830745	      1.55526699	     88.06933332	      1.53709984	      3.28640638	     -5.79425576	     -6.44995523	    -38.54985689	     -1.08474740	     -3.29856055	      3.47811058	     -3.46713402	     -6.89277443	    119.55157773	     97.00378191	      4.18240045	     -2.21170982	     -5.70411931	    120.44102606	     97.31700975
      0.08000000	     23.54953343	      1.03791760	      3.62382456	     -0.58781651	      0.58591789	     -0.59918864	     60.79848882	    -11.71956341	      2.18262834	     90.52454197	      1.57995131	     11.10873621	     -0.41590372	     -6.48399431	     61.58095862	     -4.39115552	      1.54952508	     88.07140603	      1.53713601	      3.31966782	     -5.77944245	     -6.48399431	    -38.55849987	     -1.10021719	     -3.27020953	      3.50773017	     -3.45645043	     -6.92602453	    119.61968541	     96.31227003	      4.20132460	     -2.20586421	     -5.71064947	    120.47779027	     96.63949749
      0.09000000	     23.43724354	      1.03999464	      3.64811889	     -0.58773002	      0.58574552	     -0.59924890	     60.94260875	    -11.73839392	      2.18420848	     90.57348324	      1.58080550	     10.93724770	     -0.67554354	     -6.59498323	     61.73555640	     -4.37881988	      1.53878028	     88.11136544	      1.53783344	      3.44439330	     -5.55515660	     -6.59498323	    -38.42531071	     -1.10139236	     -3.18337625	      3.46864767	     -3.51672471	     -6.89106840	    119.81726559	     94.01021286	      4.19519156	     -2.14701951	     -5.60235200	    120.70474846	     94.38038695
      0.10000000	     23.48739691	      1.14996638	      3.62483360	     -0.58791622	      0.58610380	     -0.59931879	     60.87617512	    -11.79228460	      2.31769769	     90.50807030	      1.57966383	     11.18330614	     -0.30629899	     -6.71760475	     61.58463589	     -4.28859737	      1.43602124	     87.99459808	      1.53579546	      3.27663579	     -5.84534232	     -6.71760475	    -38.57088736	     -1.19518627	     -3.24995283	      3.54935384	     -3.45514820	     -7.14894175	    119.44858671	     98.04503782	      4.20638993	     -2.14349849	     -5.83322964	    120.26718912	     97.79952826
      0.11000000	     23.38555488	      1.14646312	      3.62955983	     -0.58794288	      0.58614255	     -0.59936549	     60.99090060	    -11.77878366	      2.33952662	     90.49176163	      1.57937919	     11.11957355	     -0.37898716	     -6.74616336	     61.67521210	     -4.25289096	      1.44949188	     87.96781997	      1.53532809	      3.32413440	     -5.80344616	     -6.74616336	    -38.52980803	     -1.17847538	     -3.21485334	      3.56783816	     -3.50078874	     -7.15580872	    119.53571022	     97.28337241	      4.19629065	     -2.11192359	     -5.82579446	    120.36126505	     97.07893241
      0.12000000	     23.25192750	      1.18631157	      3.62044902	     -0.58796735	      0.58623145	     -0.59943352	     61.14392670	    -11.78390442	      2.41663326	     90.45530090	      1.57874283	     11.02851752	     -0.43344876	     -6.83311493	     61.75820013	     -4.16455184	      1.44216262	     87.89188562	      1.53400279	      3.31822911	     -5.88948157	     -6.83311493	    -38.47224699	     -1.20549908	     -3.22178717	      3.62857684	     -3.56364016	     -7.25109307	    119.47022524	     97.82363409	      4.16960272	     -2.05765851	     -6.02362106	    120.26025080	     97.60715472
